REM DIRINDEX 1\3,1\2\4,1\2\5,1\2\6
REM DIRNAME folder01,folder02,folder03,folder04,folder05,folder06
TITLE ""
FILE "065.mp3" MP3
  TRACK 01 AUDIO
    TITLE "4:cjc137_2654"
    INDEX 01 00:00:00
  TRACK 02 AUDIO
    TITLE "0:"
    INDEX 01 00:01:01
  TRACK 03 AUDIO
    TITLE "6:cjc137_2655"
    INDEX 01 00:01:09
  TRACK 04 AUDIO
    TITLE "0:"
    INDEX 01 00:02:10
  TRACK 05 AUDIO
    TITLE "5:cjc137_2656"
    INDEX 01 00:02:20
  TRACK 06 AUDIO
    TITLE "0:"
    INDEX 01 00:03:19
  TRACK 07 AUDIO
    TITLE "4:cjc137_2657"
    INDEX 01 00:04:29
  TRACK 08 AUDIO
    TITLE "0:"
    INDEX 01 00:05:46
  TRACK 09 AUDIO
    TITLE "6:cjc137_2658"
    INDEX 01 00:05:54
  TRACK 10 AUDIO
    TITLE "0:"
    INDEX 01 00:06:69
  TRACK 11 AUDIO
    TITLE "5:cjc137_2659"
    INDEX 01 00:07:05
  TRACK 12 AUDIO
    TITLE "0:"
    INDEX 01 00:08:24
  TRACK 13 AUDIO
    TITLE "4:cjc137_2660"
    INDEX 01 00:09:30
  TRACK 14 AUDIO
    TITLE "0:"
    INDEX 01 00:10:51
  TRACK 15 AUDIO
    TITLE "6:cjc137_2661"
    INDEX 01 00:10:59
  TRACK 16 AUDIO
    TITLE "0:"
    INDEX 01 00:12:12
  TRACK 17 AUDIO
    TITLE "5:cjc137_2662"
    INDEX 01 00:12:20
  TRACK 18 AUDIO
    TITLE "0:"
    INDEX 01 00:13:43
  TRACK 19 AUDIO
    TITLE "4:cjc137_2663"
    INDEX 01 00:14:49
  TRACK 20 AUDIO
    TITLE "0:"
    INDEX 01 00:15:54
  TRACK 21 AUDIO
    TITLE "6:cjc137_2664"
    INDEX 01 00:15:62
  TRACK 22 AUDIO
    TITLE "0:"
    INDEX 01 00:17:04
  TRACK 23 AUDIO
    TITLE "5:cjc137_2665"
    INDEX 01 00:17:12
  TRACK 24 AUDIO
    TITLE "0:"
    INDEX 01 00:18:19
  TRACK 25 AUDIO
    TITLE "4:cjc137_2666"
    INDEX 01 00:19:26
  TRACK 26 AUDIO
    TITLE "0:"
    INDEX 01 00:20:28
  TRACK 27 AUDIO
    TITLE "6:cjc137_2667"
    INDEX 01 00:20:37
  TRACK 28 AUDIO
    TITLE "0:"
    INDEX 01 00:21:37
  TRACK 29 AUDIO
    TITLE "5:cjc137_2668"
    INDEX 01 00:21:43
  TRACK 30 AUDIO
    TITLE "0:"
    INDEX 01 00:22:46
  TRACK 31 AUDIO
    TITLE "4:cjc137_2669"
    INDEX 01 00:23:55
  TRACK 32 AUDIO
    TITLE "0:"
    INDEX 01 00:24:67
  TRACK 33 AUDIO
    TITLE "6:cjc137_2670"
    INDEX 01 00:24:74
  TRACK 34 AUDIO
    TITLE "0:"
    INDEX 01 00:26:42
  TRACK 35 AUDIO
    TITLE "5:cjc137_2671"
    INDEX 01 00:26:52
  TRACK 36 AUDIO
    TITLE "0:"
    INDEX 01 00:27:61
  TRACK 37 AUDIO
    TITLE "4:cjc137_2672"
    INDEX 01 00:28:70
  TRACK 38 AUDIO
    TITLE "0:"
    INDEX 01 00:30:22
  TRACK 39 AUDIO
    TITLE "6:cjc137_2673"
    INDEX 01 00:30:34
  TRACK 40 AUDIO
    TITLE "0:"
    INDEX 01 00:31:35
  TRACK 41 AUDIO
    TITLE "5:cjc137_2674"
    INDEX 01 00:31:41
  TRACK 42 AUDIO
    TITLE "0:"
    INDEX 01 00:32:70
  TRACK 43 AUDIO
    TITLE "4:cjc137_2675"
    INDEX 01 00:34:02
  TRACK 44 AUDIO
    TITLE "0:"
    INDEX 01 00:35:31
  TRACK 45 AUDIO
    TITLE "6:cjc137_2676"
    INDEX 01 00:35:35
  TRACK 46 AUDIO
    TITLE "0:"
    INDEX 01 00:37:07
  TRACK 47 AUDIO
    TITLE "5:cjc137_2677"
    INDEX 01 00:37:12
  TRACK 48 AUDIO
    TITLE "0:"
    INDEX 01 00:38:41
  TRACK 49 AUDIO
    TITLE "4:cjc137_2678"
    INDEX 01 00:39:47
  TRACK 50 AUDIO
    TITLE "0:"
    INDEX 01 00:40:64
  TRACK 51 AUDIO
    TITLE "6:cjc137_2679"
    INDEX 01 00:40:72
  TRACK 52 AUDIO
    TITLE "0:"
    INDEX 01 00:41:59
  TRACK 53 AUDIO
    TITLE "5:cjc137_2680"
    INDEX 01 00:41:67
  TRACK 54 AUDIO
    TITLE "0:"
    INDEX 01 00:43:07
  TRACK 55 AUDIO
    TITLE "4:cjc137_2681"
    INDEX 01 00:44:14
  TRACK 56 AUDIO
    TITLE "0:"
    INDEX 01 00:45:16
  TRACK 57 AUDIO
    TITLE "6:cjc137_2682"
    INDEX 01 00:45:28
  TRACK 58 AUDIO
    TITLE "0:"
    INDEX 01 00:46:68
  TRACK 59 AUDIO
    TITLE "5:cjc137_2683"
    INDEX 01 00:46:74
  TRACK 60 AUDIO
    TITLE "0:"
    INDEX 01 00:48:02
  TRACK 61 AUDIO
    TITLE "4:cjc137_2684"
    INDEX 01 00:49:14
  TRACK 62 AUDIO
    TITLE "0:"
    INDEX 01 00:50:19
  TRACK 63 AUDIO
    TITLE "6:cjc137_2685"
    INDEX 01 00:50:29
  TRACK 64 AUDIO
    TITLE "0:"
    INDEX 01 00:51:26
  TRACK 65 AUDIO
    TITLE "5:cjc137_2686"
    INDEX 01 00:51:34
  TRACK 66 AUDIO
    TITLE "0:"
    INDEX 01 00:52:41
  TRACK 67 AUDIO
    TITLE "4:cjc137_2687"
    INDEX 01 00:53:51
  TRACK 68 AUDIO
    TITLE "0:"
    INDEX 01 00:54:70
  TRACK 69 AUDIO
    TITLE "6:cjc137_2688"
    INDEX 01 00:55:03
  TRACK 70 AUDIO
    TITLE "0:"
    INDEX 01 00:56:31
  TRACK 71 AUDIO
    TITLE "5:cjc137_2689"
    INDEX 01 00:56:37
  TRACK 72 AUDIO
    TITLE "0:"
    INDEX 01 00:57:58
  TRACK 73 AUDIO
    TITLE "4:cjc137_2690"
    INDEX 01 00:58:64
  TRACK 74 AUDIO
    TITLE "0:"
    INDEX 01 00:59:63
  TRACK 75 AUDIO
    TITLE "6:cjc137_2691"
    INDEX 01 01:00:00
  TRACK 76 AUDIO
    TITLE "0:"
    INDEX 01 01:00:62
  TRACK 77 AUDIO
    TITLE "5:cjc137_2692"
    INDEX 01 01:00:70
  TRACK 78 AUDIO
    TITLE "0:"
    INDEX 01 01:01:70
  TRACK 79 AUDIO
    TITLE "4:cjc137_2693"
    INDEX 01 01:03:08
  TRACK 80 AUDIO
    TITLE "0:"
    INDEX 01 01:04:19
  TRACK 81 AUDIO
    TITLE "6:cjc137_2694"
    INDEX 01 01:04:29
  TRACK 82 AUDIO
    TITLE "0:"
    INDEX 01 01:05:24
  TRACK 83 AUDIO
    TITLE "5:cjc137_2695"
    INDEX 01 01:05:32
  TRACK 84 AUDIO
    TITLE "0:"
    INDEX 01 01:06:45
